<svg id="visual" viewBox="0 0 900 600" width="900" height="600" xmlns="http://www.w3.org/2000/svg" xmlns:xlink="http://www.w3.org/1999/xlink" version="1.1"><path d="M0 43L69 31L138 19L208 25L277 49L346 31L415 31L485 31L554 19L623 37L692 25L762 43L831 55L900 19L900 0L831 0L762 0L692 0L623 0L554 0L485 0L415 0L346 0L277 0L208 0L138 0L69 0L0 0Z" fill="#000000"></path><path d="M0 97L69 97L138 127L208 97L277 145L346 115L415 79L485 121L554 67L623 151L692 127L762 109L831 103L900 79L900 17L831 53L762 41L692 23L623 35L554 17L485 29L415 29L346 29L277 47L208 23L138 17L69 29L0 41Z" fill="#030303"></path><path d="M0 115L69 133L138 169L208 145L277 175L346 157L415 115L485 157L554 109L623 175L692 169L762 133L831 145L900 127L900 77L831 101L762 107L692 125L623 149L554 65L485 119L415 77L346 113L277 143L208 95L138 125L69 95L0 95Z" fill="#060606"></path><path d="M0 253L69 247L138 301L208 301L277 247L346 229L415 223L485 301L554 229L623 295L692 217L762 295L831 283L900 229L900 125L831 143L762 131L692 167L623 173L554 107L485 155L415 113L346 155L277 173L208 143L138 167L69 131L0 113Z" fill="#090909"></path><path d="M0 295L69 289L138 337L208 355L277 295L346 283L415 265L485 337L554 271L623 361L692 265L762 343L831 313L900 259L900 227L831 281L762 293L692 215L623 293L554 227L485 299L415 221L346 227L277 245L208 299L138 299L69 245L0 251Z" fill="#0c0c0c"></path><path d="M0 355L69 367L138 421L208 403L277 379L346 373L415 301L485 415L554 319L623 397L692 349L762 391L831 397L900 331L900 257L831 311L762 341L692 263L623 359L554 269L485 335L415 263L346 281L277 293L208 353L138 335L69 287L0 293Z" fill="#0f0f0f"></path><path d="M0 475L69 487L138 487L208 511L277 523L346 511L415 541L485 535L554 493L623 511L692 493L762 523L831 511L900 493L900 329L831 395L762 389L692 347L623 395L554 317L485 413L415 299L346 371L277 377L208 401L138 419L69 365L0 353Z" fill="#111111"></path><path d="M0 529L69 529L138 535L208 547L277 553L346 541L415 577L485 571L554 541L623 529L692 535L762 577L831 541L900 523L900 491L831 509L762 521L692 491L623 509L554 491L485 533L415 539L346 509L277 521L208 509L138 485L69 485L0 473Z" fill="#131313"></path><path d="M0 601L69 601L138 601L208 601L277 601L346 601L415 601L485 601L554 601L623 601L692 601L762 601L831 601L900 601L900 521L831 539L762 575L692 533L623 527L554 539L485 569L415 575L346 539L277 551L208 545L138 533L69 527L0 527Z" fill="#151515"></path></svg>